<?xml version="1.0" encoding="UTF-8"?>
<svg width="64px" height="64px" viewBox="0 0 64 64" version="1.1" xmlns="http://www.w3.org/2000/svg" xmlns:xlink="http://www.w3.org/1999/xlink">
    <!-- Generator: Sketch 51.3 (57544) - http://www.bohemiancoding.com/sketch -->
    <title>icn_revv_gg</title>
    <desc>Created with Sketch.</desc>
    <defs>
        <linearGradient x1="50%" y1="4.31945448%" x2="50%" y2="97.8460643%" id="linearGradient-1">
            <stop stop-color="#A3A2E0" offset="0%"></stop>
            <stop stop-color="#8D8BE0" offset="100%"></stop>
        </linearGradient>
    </defs>
    <g id="Results" stroke="none" stroke-width="1" fill="none" fill-rule="evenodd">
        <g id="Artboard" transform="translate(-729.000000, -259.000000)" fill="url(#linearGradient-1)" fill-rule="nonzero">
            <g id="icn_revv_gg" transform="translate(729.000000, 259.000000)">
                <path d="M32,58.6666667 C46.7275933,58.6666667 58.6666667,46.7275933 58.6666667,32 C58.6666667,17.2724067 46.7275933,5.33333333 32,5.33333333 C17.2724067,5.33333333 5.33333333,17.2724067 5.33333333,32 C5.33333333,46.7275933 17.2724067,58.6666667 32,58.6666667 Z M32,64 C14.326888,64 0,49.673112 0,32 C0,14.326888 14.326888,0 32,0 C49.673112,0 64,14.326888 64,32 C64,49.673112 49.673112,64 32,64 Z" id="Mask"></path>
                <path d="M32,48 C40.836556,48 48,40.836556 48,32 C48,23.163444 40.836556,16 32,16 C23.163444,16 16,23.163444 16,32 C16,40.836556 23.163444,48 32,48 Z M32,53.3333333 C20.2179253,53.3333333 10.6666667,43.7820747 10.6666667,32 C10.6666667,20.2179253 20.2179253,10.6666667 32,10.6666667 C43.7820747,10.6666667 53.3333333,20.2179253 53.3333333,32 C53.3333333,43.7820747 43.7820747,53.3333333 32,53.3333333 Z" id="Mask"></path>
                <path d="M32,37.3333333 C34.9455187,37.3333333 37.3333333,34.9455187 37.3333333,32 C37.3333333,29.0544813 34.9455187,26.6666667 32,26.6666667 C29.0544813,26.6666667 26.6666667,29.0544813 26.6666667,32 C26.6666667,34.9455187 29.0544813,37.3333333 32,37.3333333 Z M32,42.6666667 C26.1089627,42.6666667 21.3333333,37.8910373 21.3333333,32 C21.3333333,26.1089627 26.1089627,21.3333333 32,21.3333333 C37.8910373,21.3333333 42.6666667,26.1089627 42.6666667,32 C42.6666667,37.8910373 37.8910373,42.6666667 32,42.6666667 Z" id="Mask"></path>
            </g>
        </g>
    </g>
</svg>